<?xml version="1.0" encoding="UTF-8"?>
<!DOCTYPE svg PUBLIC "-//W3C//DTD SVG 1.1//EN" "http://www.w3.org/Graphics/SVG/1.1/DTD/svg11.dtd">
<svg xmlns="http://www.w3.org/2000/svg" version="1.1" width="433px" height="473px" style="shape-rendering:geometricPrecision; text-rendering:geometricPrecision; image-rendering:optimizeQuality; fill-rule:evenodd; clip-rule:evenodd" xmlns:xlink="http://www.w3.org/1999/xlink">
<g><path style="opacity:0.132" fill="#000000" d="M 20.5,0.5 C 150.834,0.333334 281.167,0.500001 411.5,1C 417.424,0.932064 422.591,2.7654 427,6.5C 428.75,9.24638 429.75,12.2464 430,15.5C 430.333,20.8333 430.667,26.1667 431,31.5C 431.667,167.833 431.667,304.167 431,440.5C 430.789,447.551 430.122,454.551 429,461.5C 425.444,468.546 419.611,471.713 411.5,471C 281.167,471.667 150.833,471.667 20.5,471C 14.5759,471.068 9.40919,469.235 5,465.5C 3.25029,462.754 2.25029,459.754 2,456.5C 1.66667,451.167 1.33333,445.833 1,440.5C 0.333333,304.167 0.333333,167.833 1,31.5C 1.33333,26.1667 1.66667,20.8333 2,15.5C 2.34209,9.974 4.84209,5.80733 9.5,3C 13.3121,2.20451 16.9788,1.37118 20.5,0.5 Z"/></g>
<g><path style="opacity:1" fill="#fed923" d="M 19.5,19.5 C 150.5,19.5 281.5,19.5 412.5,19.5C 412.5,163.833 412.5,308.167 412.5,452.5C 281.5,452.5 150.5,452.5 19.5,452.5C 19.5,308.167 19.5,163.833 19.5,19.5 Z"/></g>
<g><path style="opacity:1" fill="#221815" d="M 352.5,107.5 C 352.5,100.833 352.5,94.1667 352.5,87.5C 352.5,80.8333 352.5,74.1667 352.5,67.5C 342.5,67.5 332.5,67.5 322.5,67.5C 322.5,64.1667 322.5,60.8333 322.5,57.5C 329.167,57.5 335.833,57.5 342.5,57.5C 342.5,54.1667 342.5,50.8333 342.5,47.5C 349.167,47.5 355.833,47.5 362.5,47.5C 362.5,44.1667 362.5,40.8333 362.5,37.5C 369.167,37.5 375.833,37.5 382.5,37.5C 382.5,50.8333 382.5,64.1667 382.5,77.5C 379.167,77.5 375.833,77.5 372.5,77.5C 372.5,84.1667 372.5,90.8333 372.5,97.5C 369.167,97.5 365.833,97.5 362.5,97.5C 362.5,100.833 362.5,104.167 362.5,107.5C 359.167,107.5 355.833,107.5 352.5,107.5 Z"/></g>
<g><path style="opacity:1" fill="#221815" d="M 322.5,67.5 C 322.5,70.8333 322.5,74.1667 322.5,77.5C 319.167,77.5 315.833,77.5 312.5,77.5C 312.5,74.1667 312.5,70.8333 312.5,67.5C 315.833,67.5 319.167,67.5 322.5,67.5 Z"/></g>
<g><path style="opacity:1" fill="#fed923" d="M 322.5,67.5 C 332.5,67.5 342.5,67.5 352.5,67.5C 352.5,74.1667 352.5,80.8333 352.5,87.5C 345.833,87.5 339.167,87.5 332.5,87.5C 332.5,94.1667 332.5,100.833 332.5,107.5C 329.167,107.5 325.833,107.5 322.5,107.5C 322.5,110.833 322.5,114.167 322.5,117.5C 315.833,117.5 309.167,117.5 302.5,117.5C 302.5,120.833 302.5,124.167 302.5,127.5C 299.167,127.5 295.833,127.5 292.5,127.5C 292.5,130.833 292.5,134.167 292.5,137.5C 295.833,137.5 299.167,137.5 302.5,137.5C 302.5,140.833 302.5,144.167 302.5,147.5C 305.833,147.5 309.167,147.5 312.5,147.5C 312.5,154.167 312.5,160.833 312.5,167.5C 315.833,167.5 319.167,167.5 322.5,167.5C 322.5,177.5 322.5,187.5 322.5,197.5C 315.833,197.5 309.167,197.5 302.5,197.5C 302.5,200.833 302.5,204.167 302.5,207.5C 299.167,207.5 295.833,207.5 292.5,207.5C 292.5,214.167 292.5,220.833 292.5,227.5C 295.833,227.5 299.167,227.5 302.5,227.5C 302.5,230.833 302.5,234.167 302.5,237.5C 309.167,237.5 315.833,237.5 322.5,237.5C 322.5,240.833 322.5,244.167 322.5,247.5C 319.167,247.5 315.833,247.5 312.5,247.5C 312.5,250.833 312.5,254.167 312.5,257.5C 312.5,260.833 312.5,264.167 312.5,267.5C 312.5,270.833 312.5,274.167 312.5,277.5C 315.833,277.5 319.167,277.5 322.5,277.5C 322.5,287.5 322.5,297.5 322.5,307.5C 325.833,307.5 329.167,307.5 332.5,307.5C 332.5,330.833 332.5,354.167 332.5,377.5C 329.167,377.5 325.833,377.5 322.5,377.5C 322.5,384.167 322.5,390.833 322.5,397.5C 319.167,397.5 315.833,397.5 312.5,397.5C 312.5,400.833 312.5,404.167 312.5,407.5C 309.167,407.5 305.833,407.5 302.5,407.5C 302.5,410.833 302.5,414.167 302.5,417.5C 305.833,417.5 309.167,417.5 312.5,417.5C 312.5,420.833 312.5,424.167 312.5,427.5C 302.5,427.5 292.5,427.5 282.5,427.5C 282.5,424.167 282.5,420.833 282.5,417.5C 282.5,414.167 282.5,410.833 282.5,407.5C 275.833,407.5 269.167,407.5 262.5,407.5C 259.167,407.5 255.833,407.5 252.5,407.5C 252.5,404.167 252.5,400.833 252.5,397.5C 239.167,397.5 225.833,397.5 212.5,397.5C 212.5,400.833 212.5,404.167 212.5,407.5C 205.833,407.5 199.167,407.5 192.5,407.5C 185.833,407.5 179.167,407.5 172.5,407.5C 172.5,410.833 172.5,414.167 172.5,417.5C 172.5,420.833 172.5,424.167 172.5,427.5C 162.5,427.5 152.5,427.5 142.5,427.5C 142.5,424.167 142.5,420.833 142.5,417.5C 145.833,417.5 149.167,417.5 152.5,417.5C 152.5,414.167 152.5,410.833 152.5,407.5C 152.5,404.167 152.5,400.833 152.5,397.5C 149.167,397.5 145.833,397.5 142.5,397.5C 142.5,390.833 142.5,384.167 142.5,377.5C 139.167,377.5 135.833,377.5 132.5,377.5C 132.5,374.167 132.5,370.833 132.5,367.5C 129.167,367.5 125.833,367.5 122.5,367.5C 122.5,344.167 122.5,320.833 122.5,297.5C 125.833,297.5 129.167,297.5 132.5,297.5C 132.5,294.167 132.5,290.833 132.5,287.5C 135.833,287.5 139.167,287.5 142.5,287.5C 142.5,284.167 142.5,280.833 142.5,277.5C 142.5,274.167 142.5,270.833 142.5,267.5C 142.5,264.167 142.5,260.833 142.5,257.5C 142.5,254.167 142.5,250.833 142.5,247.5C 139.167,247.5 135.833,247.5 132.5,247.5C 132.5,244.167 132.5,240.833 132.5,237.5C 129.167,237.5 125.833,237.5 122.5,237.5C 122.5,224.167 122.5,210.833 122.5,197.5C 125.833,197.5 129.167,197.5 132.5,197.5C 132.5,190.833 132.5,184.167 132.5,177.5C 135.833,177.5 139.167,177.5 142.5,177.5C 142.5,174.167 142.5,170.833 142.5,167.5C 142.5,160.833 142.5,154.167 142.5,147.5C 145.833,147.5 149.167,147.5 152.5,147.5C 152.5,144.167 152.5,140.833 152.5,137.5C 155.833,137.5 159.167,137.5 162.5,137.5C 162.5,134.167 162.5,130.833 162.5,127.5C 145.833,127.5 129.167,127.5 112.5,127.5C 112.5,124.167 112.5,120.833 112.5,117.5C 109.167,117.5 105.833,117.5 102.5,117.5C 102.5,114.167 102.5,110.833 102.5,107.5C 99.1667,107.5 95.8333,107.5 92.5,107.5C 92.5,104.167 92.5,100.833 92.5,97.5C 95.8333,97.5 99.1667,97.5 102.5,97.5C 112.5,97.5 122.5,97.5 132.5,97.5C 132.5,100.833 132.5,104.167 132.5,107.5C 135.833,107.5 139.167,107.5 142.5,107.5C 152.5,107.5 162.5,107.5 172.5,107.5C 172.5,110.833 172.5,114.167 172.5,117.5C 175.833,117.5 179.167,117.5 182.5,117.5C 185.833,117.5 189.167,117.5 192.5,117.5C 192.5,114.167 192.5,110.833 192.5,107.5C 215.833,107.5 239.167,107.5 262.5,107.5C 262.5,110.833 262.5,114.167 262.5,117.5C 265.833,117.5 269.167,117.5 272.5,117.5C 275.833,117.5 279.167,117.5 282.5,117.5C 282.5,114.167 282.5,110.833 282.5,107.5C 285.833,107.5 289.167,107.5 292.5,107.5C 292.5,104.167 292.5,100.833 292.5,97.5C 295.833,97.5 299.167,97.5 302.5,97.5C 302.5,94.1667 302.5,90.8333 302.5,87.5C 305.833,87.5 309.167,87.5 312.5,87.5C 312.5,84.1667 312.5,80.8333 312.5,77.5C 315.833,77.5 319.167,77.5 322.5,77.5C 322.5,74.1667 322.5,70.8333 322.5,67.5 Z"/></g>
<g><path style="opacity:1" fill="#221815" d="M 102.5,87.5 C 92.5,87.5 82.5,87.5 72.5,87.5C 72.5,90.8333 72.5,94.1667 72.5,97.5C 75.8333,97.5 79.1667,97.5 82.5,97.5C 82.5,100.833 82.5,104.167 82.5,107.5C 85.8333,107.5 89.1667,107.5 92.5,107.5C 95.8333,107.5 99.1667,107.5 102.5,107.5C 102.5,110.833 102.5,114.167 102.5,117.5C 105.833,117.5 109.167,117.5 112.5,117.5C 112.5,120.833 112.5,124.167 112.5,127.5C 112.5,130.833 112.5,134.167 112.5,137.5C 105.833,137.5 99.1667,137.5 92.5,137.5C 92.5,134.167 92.5,130.833 92.5,127.5C 89.1667,127.5 85.8333,127.5 82.5,127.5C 82.5,124.167 82.5,120.833 82.5,117.5C 79.1667,117.5 75.8333,117.5 72.5,117.5C 72.5,114.167 72.5,110.833 72.5,107.5C 69.1667,107.5 65.8333,107.5 62.5,107.5C 62.5,104.167 62.5,100.833 62.5,97.5C 55.8333,97.5 49.1667,97.5 42.5,97.5C 42.5,90.8333 42.5,84.1667 42.5,77.5C 62.5,77.5 82.5,77.5 102.5,77.5C 102.5,80.8333 102.5,84.1667 102.5,87.5 Z"/></g>
<g><path style="opacity:1" fill="#221815" d="M 312.5,77.5 C 312.5,80.8333 312.5,84.1667 312.5,87.5C 309.167,87.5 305.833,87.5 302.5,87.5C 302.5,84.1667 302.5,80.8333 302.5,77.5C 305.833,77.5 309.167,77.5 312.5,77.5 Z"/></g>
<g><path style="opacity:1" fill="#f09223" d="M 102.5,87.5 C 102.5,90.8333 102.5,94.1667 102.5,97.5C 99.1667,97.5 95.8333,97.5 92.5,97.5C 92.5,100.833 92.5,104.167 92.5,107.5C 89.1667,107.5 85.8333,107.5 82.5,107.5C 82.5,104.167 82.5,100.833 82.5,97.5C 79.1667,97.5 75.8333,97.5 72.5,97.5C 72.5,94.1667 72.5,90.8333 72.5,87.5C 82.5,87.5 92.5,87.5 102.5,87.5 Z"/></g>
<g><path style="opacity:1" fill="#221815" d="M 102.5,87.5 C 115.833,87.5 129.167,87.5 142.5,87.5C 142.5,90.8333 142.5,94.1667 142.5,97.5C 139.167,97.5 135.833,97.5 132.5,97.5C 122.5,97.5 112.5,97.5 102.5,97.5C 102.5,94.1667 102.5,90.8333 102.5,87.5 Z"/></g>
<g><path style="opacity:1" fill="#221815" d="M 302.5,87.5 C 302.5,90.8333 302.5,94.1667 302.5,97.5C 299.167,97.5 295.833,97.5 292.5,97.5C 292.5,94.1667 292.5,90.8333 292.5,87.5C 295.833,87.5 299.167,87.5 302.5,87.5 Z"/></g>
<g><path style="opacity:1" fill="#f09223" d="M 352.5,87.5 C 352.5,94.1667 352.5,100.833 352.5,107.5C 349.167,107.5 345.833,107.5 342.5,107.5C 342.5,110.833 342.5,114.167 342.5,117.5C 339.167,117.5 335.833,117.5 332.5,117.5C 332.5,120.833 332.5,124.167 332.5,127.5C 329.167,127.5 325.833,127.5 322.5,127.5C 322.5,130.833 322.5,134.167 322.5,137.5C 319.167,137.5 315.833,137.5 312.5,137.5C 312.5,134.167 312.5,130.833 312.5,127.5C 309.167,127.5 305.833,127.5 302.5,127.5C 302.5,124.167 302.5,120.833 302.5,117.5C 309.167,117.5 315.833,117.5 322.5,117.5C 322.5,114.167 322.5,110.833 322.5,107.5C 325.833,107.5 329.167,107.5 332.5,107.5C 332.5,100.833 332.5,94.1667 332.5,87.5C 339.167,87.5 345.833,87.5 352.5,87.5 Z"/></g>
<g><path style="opacity:1" fill="#f09223" d="M 132.5,97.5 C 135.833,97.5 139.167,97.5 142.5,97.5C 142.5,100.833 142.5,104.167 142.5,107.5C 139.167,107.5 135.833,107.5 132.5,107.5C 132.5,104.167 132.5,100.833 132.5,97.5 Z"/></g>
<g><path style="opacity:1" fill="#221815" d="M 142.5,97.5 C 155.833,97.5 169.167,97.5 182.5,97.5C 182.5,100.833 182.5,104.167 182.5,107.5C 179.167,107.5 175.833,107.5 172.5,107.5C 162.5,107.5 152.5,107.5 142.5,107.5C 142.5,104.167 142.5,100.833 142.5,97.5 Z"/></g>
<g><path style="opacity:1" fill="#221815" d="M 262.5,107.5 C 239.167,107.5 215.833,107.5 192.5,107.5C 192.5,104.167 192.5,100.833 192.5,97.5C 215.833,97.5 239.167,97.5 262.5,97.5C 262.5,100.833 262.5,104.167 262.5,107.5 Z"/></g>
<g><path style="opacity:1" fill="#221815" d="M 292.5,97.5 C 292.5,100.833 292.5,104.167 292.5,107.5C 289.167,107.5 285.833,107.5 282.5,107.5C 279.167,107.5 275.833,107.5 272.5,107.5C 272.5,104.167 272.5,100.833 272.5,97.5C 279.167,97.5 285.833,97.5 292.5,97.5 Z"/></g>
<g><path style="opacity:1" fill="#f09223" d="M 92.5,107.5 C 95.8333,107.5 99.1667,107.5 102.5,107.5C 102.5,110.833 102.5,114.167 102.5,117.5C 99.1667,117.5 95.8333,117.5 92.5,117.5C 92.5,114.167 92.5,110.833 92.5,107.5 Z"/></g>
<g><path style="opacity:1" fill="#f09223" d="M 172.5,107.5 C 175.833,107.5 179.167,107.5 182.5,107.5C 182.5,110.833 182.5,114.167 182.5,117.5C 179.167,117.5 175.833,117.5 172.5,117.5C 172.5,114.167 172.5,110.833 172.5,107.5 Z"/></g>
<g><path style="opacity:1" fill="#221815" d="M 182.5,107.5 C 185.833,107.5 189.167,107.5 192.5,107.5C 192.5,110.833 192.5,114.167 192.5,117.5C 189.167,117.5 185.833,117.5 182.5,117.5C 182.5,114.167 182.5,110.833 182.5,107.5 Z"/></g>
<g><path style="opacity:1" fill="#221815" d="M 262.5,107.5 C 265.833,107.5 269.167,107.5 272.5,107.5C 272.5,110.833 272.5,114.167 272.5,117.5C 269.167,117.5 265.833,117.5 262.5,117.5C 262.5,114.167 262.5,110.833 262.5,107.5 Z"/></g>
<g><path style="opacity:1" fill="#f09223" d="M 272.5,107.5 C 275.833,107.5 279.167,107.5 282.5,107.5C 282.5,110.833 282.5,114.167 282.5,117.5C 279.167,117.5 275.833,117.5 272.5,117.5C 272.5,114.167 272.5,110.833 272.5,107.5 Z"/></g>
<g><path style="opacity:1" fill="#221815" d="M 352.5,107.5 C 352.5,110.833 352.5,114.167 352.5,117.5C 349.167,117.5 345.833,117.5 342.5,117.5C 342.5,114.167 342.5,110.833 342.5,107.5C 345.833,107.5 349.167,107.5 352.5,107.5 Z"/></g>
<g><path style="opacity:1" fill="#f09223" d="M 102.5,117.5 C 105.833,117.5 109.167,117.5 112.5,117.5C 112.5,120.833 112.5,124.167 112.5,127.5C 109.167,127.5 105.833,127.5 102.5,127.5C 102.5,124.167 102.5,120.833 102.5,117.5 Z"/></g>
<g><path style="opacity:1" fill="#221815" d="M 342.5,117.5 C 342.5,120.833 342.5,124.167 342.5,127.5C 339.167,127.5 335.833,127.5 332.5,127.5C 332.5,124.167 332.5,120.833 332.5,117.5C 335.833,117.5 339.167,117.5 342.5,117.5 Z"/></g>
<g><path style="opacity:1" fill="#f09223" d="M 112.5,127.5 C 129.167,127.5 145.833,127.5 162.5,127.5C 162.5,130.833 162.5,134.167 162.5,137.5C 159.167,137.5 155.833,137.5 152.5,137.5C 149.167,137.5 145.833,137.5 142.5,137.5C 142.5,140.833 142.5,144.167 142.5,147.5C 139.167,147.5 135.833,147.5 132.5,147.5C 132.5,144.167 132.5,140.833 132.5,137.5C 125.833,137.5 119.167,137.5 112.5,137.5C 112.5,134.167 112.5,130.833 112.5,127.5 Z"/></g>
<g><path style="opacity:1" fill="#f09223" d="M 302.5,127.5 C 302.5,130.833 302.5,134.167 302.5,137.5C 299.167,137.5 295.833,137.5 292.5,137.5C 292.5,134.167 292.5,130.833 292.5,127.5C 295.833,127.5 299.167,127.5 302.5,127.5 Z"/></g>
<g><path style="opacity:1" fill="#221815" d="M 302.5,127.5 C 305.833,127.5 309.167,127.5 312.5,127.5C 312.5,130.833 312.5,134.167 312.5,137.5C 309.167,137.5 305.833,137.5 302.5,137.5C 302.5,134.167 302.5,130.833 302.5,127.5 Z"/></g>
<g><path style="opacity:1" fill="#221815" d="M 332.5,127.5 C 332.5,130.833 332.5,134.167 332.5,137.5C 329.167,137.5 325.833,137.5 322.5,137.5C 322.5,134.167 322.5,130.833 322.5,127.5C 325.833,127.5 329.167,127.5 332.5,127.5 Z"/></g>
<g><path style="opacity:1" fill="#221815" d="M 112.5,137.5 C 119.167,137.5 125.833,137.5 132.5,137.5C 132.5,140.833 132.5,144.167 132.5,147.5C 125.833,147.5 119.167,147.5 112.5,147.5C 112.5,144.167 112.5,140.833 112.5,137.5 Z"/></g>
<g><path style="opacity:1" fill="#221815" d="M 152.5,137.5 C 152.5,140.833 152.5,144.167 152.5,147.5C 149.167,147.5 145.833,147.5 142.5,147.5C 142.5,144.167 142.5,140.833 142.5,137.5C 145.833,137.5 149.167,137.5 152.5,137.5 Z"/></g>
<g><path style="opacity:1" fill="#f09223" d="M 302.5,137.5 C 305.833,137.5 309.167,137.5 312.5,137.5C 312.5,140.833 312.5,144.167 312.5,147.5C 309.167,147.5 305.833,147.5 302.5,147.5C 302.5,144.167 302.5,140.833 302.5,137.5 Z"/></g>
<g><path style="opacity:1" fill="#221815" d="M 312.5,137.5 C 315.833,137.5 319.167,137.5 322.5,137.5C 322.5,147.5 322.5,157.5 322.5,167.5C 319.167,167.5 315.833,167.5 312.5,167.5C 312.5,160.833 312.5,154.167 312.5,147.5C 312.5,144.167 312.5,140.833 312.5,137.5 Z"/></g>
<g><path style="opacity:1" fill="#221815" d="M 132.5,147.5 C 135.833,147.5 139.167,147.5 142.5,147.5C 142.5,154.167 142.5,160.833 142.5,167.5C 139.167,167.5 135.833,167.5 132.5,167.5C 132.5,160.833 132.5,154.167 132.5,147.5 Z"/></g>
<g><path style="opacity:1" fill="#221815" d="M 192.5,167.5 C 195.833,167.5 199.167,167.5 202.5,167.5C 202.5,174.167 202.5,180.833 202.5,187.5C 199.167,187.5 195.833,187.5 192.5,187.5C 192.5,190.833 192.5,194.167 192.5,197.5C 185.833,197.5 179.167,197.5 172.5,197.5C 172.5,194.167 172.5,190.833 172.5,187.5C 169.167,187.5 165.833,187.5 162.5,187.5C 162.5,180.833 162.5,174.167 162.5,167.5C 165.833,167.5 169.167,167.5 172.5,167.5C 172.5,164.167 172.5,160.833 172.5,157.5C 179.167,157.5 185.833,157.5 192.5,157.5C 192.5,160.833 192.5,164.167 192.5,167.5 Z"/></g>
<g><path style="opacity:1" fill="#221815" d="M 292.5,167.5 C 295.833,167.5 299.167,167.5 302.5,167.5C 302.5,174.167 302.5,180.833 302.5,187.5C 299.167,187.5 295.833,187.5 292.5,187.5C 292.5,190.833 292.5,194.167 292.5,197.5C 285.833,197.5 279.167,197.5 272.5,197.5C 272.5,194.167 272.5,190.833 272.5,187.5C 269.167,187.5 265.833,187.5 262.5,187.5C 262.5,180.833 262.5,174.167 262.5,167.5C 265.833,167.5 269.167,167.5 272.5,167.5C 272.5,164.167 272.5,160.833 272.5,157.5C 279.167,157.5 285.833,157.5 292.5,157.5C 292.5,160.833 292.5,164.167 292.5,167.5 Z"/></g>
<g><path style="opacity:1" fill="#221815" d="M 132.5,167.5 C 132.5,170.833 132.5,174.167 132.5,177.5C 132.5,184.167 132.5,190.833 132.5,197.5C 129.167,197.5 125.833,197.5 122.5,197.5C 122.5,187.5 122.5,177.5 122.5,167.5C 125.833,167.5 129.167,167.5 132.5,167.5 Z"/></g>
<g><path style="opacity:1" fill="#f09223" d="M 132.5,167.5 C 135.833,167.5 139.167,167.5 142.5,167.5C 142.5,170.833 142.5,174.167 142.5,177.5C 139.167,177.5 135.833,177.5 132.5,177.5C 132.5,174.167 132.5,170.833 132.5,167.5 Z"/></g>
<g><path style="opacity:1" fill="#fefffe" d="M 192.5,167.5 C 192.5,170.833 192.5,174.167 192.5,177.5C 189.167,177.5 185.833,177.5 182.5,177.5C 182.5,174.167 182.5,170.833 182.5,167.5C 185.833,167.5 189.167,167.5 192.5,167.5 Z"/></g>
<g><path style="opacity:1" fill="#fefffe" d="M 292.5,167.5 C 292.5,170.833 292.5,174.167 292.5,177.5C 289.167,177.5 285.833,177.5 282.5,177.5C 282.5,174.167 282.5,170.833 282.5,167.5C 285.833,167.5 289.167,167.5 292.5,167.5 Z"/></g>
<g><path style="opacity:1" fill="#221815" d="M 322.5,167.5 C 325.833,167.5 329.167,167.5 332.5,167.5C 332.5,177.5 332.5,187.5 332.5,197.5C 329.167,197.5 325.833,197.5 322.5,197.5C 322.5,187.5 322.5,177.5 322.5,167.5 Z"/></g>
<g><path style="opacity:1" fill="#221815" d="M 62.5,217.5 C 59.1667,217.5 55.8333,217.5 52.5,217.5C 52.5,220.833 52.5,224.167 52.5,227.5C 52.5,250.833 52.5,274.167 52.5,297.5C 49.1667,297.5 45.8333,297.5 42.5,297.5C 42.5,264.167 42.5,230.833 42.5,197.5C 45.8333,197.5 49.1667,197.5 52.5,197.5C 52.5,200.833 52.5,204.167 52.5,207.5C 55.8333,207.5 59.1667,207.5 62.5,207.5C 62.5,210.833 62.5,214.167 62.5,217.5 Z"/></g>
<g><path style="opacity:1" fill="#221815" d="M 122.5,197.5 C 122.5,210.833 122.5,224.167 122.5,237.5C 119.167,237.5 115.833,237.5 112.5,237.5C 112.5,224.167 112.5,210.833 112.5,197.5C 115.833,197.5 119.167,197.5 122.5,197.5 Z"/></g>
<g><path style="opacity:1" fill="#fd330f" d="M 142.5,197.5 C 149.167,197.5 155.833,197.5 162.5,197.5C 162.5,200.833 162.5,204.167 162.5,207.5C 165.833,207.5 169.167,207.5 172.5,207.5C 172.5,214.167 172.5,220.833 172.5,227.5C 169.167,227.5 165.833,227.5 162.5,227.5C 162.5,230.833 162.5,234.167 162.5,237.5C 155.833,237.5 149.167,237.5 142.5,237.5C 142.5,234.167 142.5,230.833 142.5,227.5C 139.167,227.5 135.833,227.5 132.5,227.5C 132.5,220.833 132.5,214.167 132.5,207.5C 135.833,207.5 139.167,207.5 142.5,207.5C 142.5,204.167 142.5,200.833 142.5,197.5 Z"/></g>
<g><path style="opacity:1" fill="#221815" d="M 222.5,197.5 C 229.167,197.5 235.833,197.5 242.5,197.5C 242.5,200.833 242.5,204.167 242.5,207.5C 235.833,207.5 229.167,207.5 222.5,207.5C 222.5,204.167 222.5,200.833 222.5,197.5 Z"/></g>
<g><path style="opacity:1" fill="#fd330f" d="M 322.5,197.5 C 322.5,200.833 322.5,204.167 322.5,207.5C 325.833,207.5 329.167,207.5 332.5,207.5C 332.5,214.167 332.5,220.833 332.5,227.5C 329.167,227.5 325.833,227.5 322.5,227.5C 322.5,230.833 322.5,234.167 322.5,237.5C 315.833,237.5 309.167,237.5 302.5,237.5C 302.5,234.167 302.5,230.833 302.5,227.5C 299.167,227.5 295.833,227.5 292.5,227.5C 292.5,220.833 292.5,214.167 292.5,207.5C 295.833,207.5 299.167,207.5 302.5,207.5C 302.5,204.167 302.5,200.833 302.5,197.5C 309.167,197.5 315.833,197.5 322.5,197.5 Z"/></g>
<g><path style="opacity:1" fill="#fed923" d="M 322.5,197.5 C 325.833,197.5 329.167,197.5 332.5,197.5C 332.5,200.833 332.5,204.167 332.5,207.5C 329.167,207.5 325.833,207.5 322.5,207.5C 322.5,204.167 322.5,200.833 322.5,197.5 Z"/></g>
<g><path style="opacity:1" fill="#221815" d="M 332.5,197.5 C 335.833,197.5 339.167,197.5 342.5,197.5C 342.5,210.833 342.5,224.167 342.5,237.5C 339.167,237.5 335.833,237.5 332.5,237.5C 332.5,234.167 332.5,230.833 332.5,227.5C 332.5,220.833 332.5,214.167 332.5,207.5C 332.5,204.167 332.5,200.833 332.5,197.5 Z"/></g>
<g><path style="opacity:1" fill="#f09223" d="M 62.5,217.5 C 62.5,220.833 62.5,224.167 62.5,227.5C 59.1667,227.5 55.8333,227.5 52.5,227.5C 52.5,224.167 52.5,220.833 52.5,217.5C 55.8333,217.5 59.1667,217.5 62.5,217.5 Z"/></g>
<g><path style="opacity:1" fill="#221815" d="M 62.5,217.5 C 65.8333,217.5 69.1667,217.5 72.5,217.5C 72.5,220.833 72.5,224.167 72.5,227.5C 69.1667,227.5 65.8333,227.5 62.5,227.5C 62.5,224.167 62.5,220.833 62.5,217.5 Z"/></g>
<g><path style="opacity:1" fill="#221815" d="M 202.5,227.5 C 199.167,227.5 195.833,227.5 192.5,227.5C 192.5,224.167 192.5,220.833 192.5,217.5C 195.833,217.5 199.167,217.5 202.5,217.5C 202.5,220.833 202.5,224.167 202.5,227.5 Z"/></g>
<g><path style="opacity:1" fill="#221815" d="M 242.5,227.5 C 235.833,227.5 229.167,227.5 222.5,227.5C 222.5,224.167 222.5,220.833 222.5,217.5C 229.167,217.5 235.833,217.5 242.5,217.5C 242.5,220.833 242.5,224.167 242.5,227.5 Z"/></g>
<g><path style="opacity:1" fill="#221815" d="M 262.5,227.5 C 262.5,224.167 262.5,220.833 262.5,217.5C 265.833,217.5 269.167,217.5 272.5,217.5C 272.5,220.833 272.5,224.167 272.5,227.5C 269.167,227.5 265.833,227.5 262.5,227.5 Z"/></g>
<g><path style="opacity:1" fill="#fed923" d="M 52.5,227.5 C 55.8333,227.5 59.1667,227.5 62.5,227.5C 62.5,230.833 62.5,234.167 62.5,237.5C 65.8333,237.5 69.1667,237.5 72.5,237.5C 72.5,240.833 72.5,244.167 72.5,247.5C 75.8333,247.5 79.1667,247.5 82.5,247.5C 82.5,250.833 82.5,254.167 82.5,257.5C 85.8333,257.5 89.1667,257.5 92.5,257.5C 92.5,260.833 92.5,264.167 92.5,267.5C 95.8333,267.5 99.1667,267.5 102.5,267.5C 102.5,270.833 102.5,274.167 102.5,277.5C 105.833,277.5 109.167,277.5 112.5,277.5C 112.5,280.833 112.5,284.167 112.5,287.5C 115.833,287.5 119.167,287.5 122.5,287.5C 122.5,290.833 122.5,294.167 122.5,297.5C 115.833,297.5 109.167,297.5 102.5,297.5C 102.5,300.833 102.5,304.167 102.5,307.5C 99.1667,307.5 95.8333,307.5 92.5,307.5C 92.5,310.833 92.5,314.167 92.5,317.5C 89.1667,317.5 85.8333,317.5 82.5,317.5C 82.5,320.833 82.5,324.167 82.5,327.5C 75.8333,327.5 69.1667,327.5 62.5,327.5C 62.5,324.167 62.5,320.833 62.5,317.5C 65.8333,317.5 69.1667,317.5 72.5,317.5C 72.5,314.167 72.5,310.833 72.5,307.5C 69.1667,307.5 65.8333,307.5 62.5,307.5C 62.5,304.167 62.5,300.833 62.5,297.5C 59.1667,297.5 55.8333,297.5 52.5,297.5C 52.5,274.167 52.5,250.833 52.5,227.5 Z"/></g>
<g><path style="opacity:1" fill="#f09223" d="M 62.5,227.5 C 65.8333,227.5 69.1667,227.5 72.5,227.5C 72.5,230.833 72.5,234.167 72.5,237.5C 69.1667,237.5 65.8333,237.5 62.5,237.5C 62.5,234.167 62.5,230.833 62.5,227.5 Z"/></g>
<g><path style="opacity:1" fill="#221815" d="M 72.5,227.5 C 75.8333,227.5 79.1667,227.5 82.5,227.5C 82.5,230.833 82.5,234.167 82.5,237.5C 79.1667,237.5 75.8333,237.5 72.5,237.5C 72.5,234.167 72.5,230.833 72.5,227.5 Z"/></g>
<g><path style="opacity:1" fill="#221815" d="M 202.5,227.5 C 209.167,227.5 215.833,227.5 222.5,227.5C 222.5,230.833 222.5,234.167 222.5,237.5C 215.833,237.5 209.167,237.5 202.5,237.5C 202.5,234.167 202.5,230.833 202.5,227.5 Z"/></g>
<g><path style="opacity:1" fill="#221815" d="M 242.5,227.5 C 249.167,227.5 255.833,227.5 262.5,227.5C 262.5,230.833 262.5,234.167 262.5,237.5C 255.833,237.5 249.167,237.5 242.5,237.5C 242.5,234.167 242.5,230.833 242.5,227.5 Z"/></g>
<g><path style="opacity:1" fill="#fed923" d="M 332.5,227.5 C 332.5,230.833 332.5,234.167 332.5,237.5C 329.167,237.5 325.833,237.5 322.5,237.5C 322.5,234.167 322.5,230.833 322.5,227.5C 325.833,227.5 329.167,227.5 332.5,227.5 Z"/></g>
<g><path style="opacity:1" fill="#f09223" d="M 72.5,237.5 C 75.8333,237.5 79.1667,237.5 82.5,237.5C 82.5,240.833 82.5,244.167 82.5,247.5C 79.1667,247.5 75.8333,247.5 72.5,247.5C 72.5,244.167 72.5,240.833 72.5,237.5 Z"/></g>
<g><path style="opacity:1" fill="#221815" d="M 82.5,237.5 C 85.8333,237.5 89.1667,237.5 92.5,237.5C 92.5,240.833 92.5,244.167 92.5,247.5C 89.1667,247.5 85.8333,247.5 82.5,247.5C 82.5,244.167 82.5,240.833 82.5,237.5 Z"/></g>
<g><path style="opacity:1" fill="#221815" d="M 122.5,237.5 C 125.833,237.5 129.167,237.5 132.5,237.5C 132.5,240.833 132.5,244.167 132.5,247.5C 132.5,250.833 132.5,254.167 132.5,257.5C 129.167,257.5 125.833,257.5 122.5,257.5C 122.5,250.833 122.5,244.167 122.5,237.5 Z"/></g>
<g><path style="opacity:1" fill="#221815" d="M 322.5,237.5 C 325.833,237.5 329.167,237.5 332.5,237.5C 332.5,244.167 332.5,250.833 332.5,257.5C 329.167,257.5 325.833,257.5 322.5,257.5C 322.5,254.167 322.5,250.833 322.5,247.5C 322.5,244.167 322.5,240.833 322.5,237.5 Z"/></g>
<g><path style="opacity:1" fill="#f09223" d="M 82.5,247.5 C 85.8333,247.5 89.1667,247.5 92.5,247.5C 92.5,250.833 92.5,254.167 92.5,257.5C 89.1667,257.5 85.8333,257.5 82.5,257.5C 82.5,254.167 82.5,250.833 82.5,247.5 Z"/></g>
<g><path style="opacity:1" fill="#221815" d="M 92.5,247.5 C 95.8333,247.5 99.1667,247.5 102.5,247.5C 102.5,250.833 102.5,254.167 102.5,257.5C 99.1667,257.5 95.8333,257.5 92.5,257.5C 92.5,254.167 92.5,250.833 92.5,247.5 Z"/></g>
<g><path style="opacity:1" fill="#f09223" d="M 132.5,247.5 C 135.833,247.5 139.167,247.5 142.5,247.5C 142.5,250.833 142.5,254.167 142.5,257.5C 139.167,257.5 135.833,257.5 132.5,257.5C 132.5,254.167 132.5,250.833 132.5,247.5 Z"/></g>
<g><path style="opacity:1" fill="#f09223" d="M 322.5,247.5 C 322.5,250.833 322.5,254.167 322.5,257.5C 319.167,257.5 315.833,257.5 312.5,257.5C 312.5,254.167 312.5,250.833 312.5,247.5C 315.833,247.5 319.167,247.5 322.5,247.5 Z"/></g>
<g><path style="opacity:1" fill="#f09223" d="M 92.5,257.5 C 95.8333,257.5 99.1667,257.5 102.5,257.5C 102.5,260.833 102.5,264.167 102.5,267.5C 99.1667,267.5 95.8333,267.5 92.5,267.5C 92.5,264.167 92.5,260.833 92.5,257.5 Z"/></g>
<g><path style="opacity:1" fill="#221815" d="M 102.5,257.5 C 105.833,257.5 109.167,257.5 112.5,257.5C 112.5,260.833 112.5,264.167 112.5,267.5C 109.167,267.5 105.833,267.5 102.5,267.5C 102.5,264.167 102.5,260.833 102.5,257.5 Z"/></g>
<g><path style="opacity:1" fill="#221815" d="M 132.5,257.5 C 135.833,257.5 139.167,257.5 142.5,257.5C 142.5,260.833 142.5,264.167 142.5,267.5C 139.167,267.5 135.833,267.5 132.5,267.5C 132.5,264.167 132.5,260.833 132.5,257.5 Z"/></g>
<g><path style="opacity:1" fill="#221815" d="M 312.5,257.5 C 315.833,257.5 319.167,257.5 322.5,257.5C 322.5,260.833 322.5,264.167 322.5,267.5C 319.167,267.5 315.833,267.5 312.5,267.5C 312.5,264.167 312.5,260.833 312.5,257.5 Z"/></g>
<g><path style="opacity:1" fill="#f09223" d="M 102.5,267.5 C 105.833,267.5 109.167,267.5 112.5,267.5C 112.5,270.833 112.5,274.167 112.5,277.5C 109.167,277.5 105.833,277.5 102.5,277.5C 102.5,274.167 102.5,270.833 102.5,267.5 Z"/></g>
<g><path style="opacity:1" fill="#221815" d="M 112.5,267.5 C 119.167,267.5 125.833,267.5 132.5,267.5C 132.5,270.833 132.5,274.167 132.5,277.5C 135.833,277.5 139.167,277.5 142.5,277.5C 142.5,280.833 142.5,284.167 142.5,287.5C 139.167,287.5 135.833,287.5 132.5,287.5C 132.5,290.833 132.5,294.167 132.5,297.5C 129.167,297.5 125.833,297.5 122.5,297.5C 122.5,294.167 122.5,290.833 122.5,287.5C 119.167,287.5 115.833,287.5 112.5,287.5C 112.5,284.167 112.5,280.833 112.5,277.5C 112.5,274.167 112.5,270.833 112.5,267.5 Z"/></g>
<g><path style="opacity:1" fill="#f09223" d="M 132.5,267.5 C 135.833,267.5 139.167,267.5 142.5,267.5C 142.5,270.833 142.5,274.167 142.5,277.5C 139.167,277.5 135.833,277.5 132.5,277.5C 132.5,274.167 132.5,270.833 132.5,267.5 Z"/></g>
<g><path style="opacity:1" fill="#f09223" d="M 212.5,267.5 C 225.833,267.5 239.167,267.5 252.5,267.5C 252.5,270.833 252.5,274.167 252.5,277.5C 249.167,277.5 245.833,277.5 242.5,277.5C 242.5,280.833 242.5,284.167 242.5,287.5C 235.833,287.5 229.167,287.5 222.5,287.5C 222.5,284.167 222.5,280.833 222.5,277.5C 219.167,277.5 215.833,277.5 212.5,277.5C 212.5,274.167 212.5,270.833 212.5,267.5 Z"/></g>
<g><path style="opacity:1" fill="#f09223" d="M 312.5,267.5 C 315.833,267.5 319.167,267.5 322.5,267.5C 322.5,270.833 322.5,274.167 322.5,277.5C 319.167,277.5 315.833,277.5 312.5,277.5C 312.5,274.167 312.5,270.833 312.5,267.5 Z"/></g>
<g><path style="opacity:1" fill="#221815" d="M 322.5,267.5 C 325.833,267.5 329.167,267.5 332.5,267.5C 332.5,280.833 332.5,294.167 332.5,307.5C 329.167,307.5 325.833,307.5 322.5,307.5C 322.5,297.5 322.5,287.5 322.5,277.5C 322.5,274.167 322.5,270.833 322.5,267.5 Z"/></g>
<g><path style="opacity:1" fill="#f09223" d="M 112.5,277.5 C 115.833,277.5 119.167,277.5 122.5,277.5C 122.5,280.833 122.5,284.167 122.5,287.5C 122.5,284.167 122.5,280.833 122.5,277.5C 119.167,277.5 115.833,277.5 112.5,277.5 Z"/></g>
<g><path style="opacity:1" fill="#221815" d="M 202.5,307.5 C 199.167,307.5 195.833,307.5 192.5,307.5C 192.5,300.833 192.5,294.167 192.5,287.5C 195.833,287.5 199.167,287.5 202.5,287.5C 202.5,294.167 202.5,300.833 202.5,307.5 Z"/></g>
<g><path style="opacity:1" fill="#221815" d="M 262.5,307.5 C 262.5,300.833 262.5,294.167 262.5,287.5C 265.833,287.5 269.167,287.5 272.5,287.5C 272.5,294.167 272.5,300.833 272.5,307.5C 269.167,307.5 265.833,307.5 262.5,307.5 Z"/></g>
<g><path style="opacity:1" fill="#221815" d="M 52.5,297.5 C 55.8333,297.5 59.1667,297.5 62.5,297.5C 62.5,300.833 62.5,304.167 62.5,307.5C 59.1667,307.5 55.8333,307.5 52.5,307.5C 52.5,304.167 52.5,300.833 52.5,297.5 Z"/></g>
<g><path style="opacity:1" fill="#221815" d="M 122.5,297.5 C 122.5,320.833 122.5,344.167 122.5,367.5C 122.5,370.833 122.5,374.167 122.5,377.5C 119.167,377.5 115.833,377.5 112.5,377.5C 112.5,374.167 112.5,370.833 112.5,367.5C 109.167,367.5 105.833,367.5 102.5,367.5C 102.5,364.167 102.5,360.833 102.5,357.5C 105.833,357.5 109.167,357.5 112.5,357.5C 112.5,354.167 112.5,350.833 112.5,347.5C 109.167,347.5 105.833,347.5 102.5,347.5C 102.5,344.167 102.5,340.833 102.5,337.5C 105.833,337.5 109.167,337.5 112.5,337.5C 112.5,327.5 112.5,317.5 112.5,307.5C 109.167,307.5 105.833,307.5 102.5,307.5C 102.5,304.167 102.5,300.833 102.5,297.5C 109.167,297.5 115.833,297.5 122.5,297.5 Z"/></g>
<g><path style="opacity:1" fill="#221815" d="M 162.5,317.5 C 159.167,317.5 155.833,317.5 152.5,317.5C 152.5,310.833 152.5,304.167 152.5,297.5C 155.833,297.5 159.167,297.5 162.5,297.5C 162.5,304.167 162.5,310.833 162.5,317.5 Z"/></g>
<g><path style="opacity:1" fill="#221815" d="M 312.5,317.5 C 309.167,317.5 305.833,317.5 302.5,317.5C 302.5,310.833 302.5,304.167 302.5,297.5C 305.833,297.5 309.167,297.5 312.5,297.5C 312.5,304.167 312.5,310.833 312.5,317.5 Z"/></g>
<g><path style="opacity:1" fill="#221815" d="M 62.5,307.5 C 65.8333,307.5 69.1667,307.5 72.5,307.5C 72.5,310.833 72.5,314.167 72.5,317.5C 69.1667,317.5 65.8333,317.5 62.5,317.5C 62.5,314.167 62.5,310.833 62.5,307.5 Z"/></g>
<g><path style="opacity:1" fill="#221815" d="M 102.5,307.5 C 102.5,310.833 102.5,314.167 102.5,317.5C 99.1667,317.5 95.8333,317.5 92.5,317.5C 92.5,314.167 92.5,310.833 92.5,307.5C 95.8333,307.5 99.1667,307.5 102.5,307.5 Z"/></g>
<g><path style="opacity:1" fill="#c2a40e" d="M 102.5,307.5 C 105.833,307.5 109.167,307.5 112.5,307.5C 112.5,317.5 112.5,327.5 112.5,337.5C 109.167,337.5 105.833,337.5 102.5,337.5C 102.5,334.167 102.5,330.833 102.5,327.5C 99.1667,327.5 95.8333,327.5 92.5,327.5C 92.5,324.167 92.5,320.833 92.5,317.5C 95.8333,317.5 99.1667,317.5 102.5,317.5C 102.5,314.167 102.5,310.833 102.5,307.5 Z"/></g>
<g><path style="opacity:1" fill="#221815" d="M 202.5,307.5 C 205.833,307.5 209.167,307.5 212.5,307.5C 212.5,320.833 212.5,334.167 212.5,347.5C 209.167,347.5 205.833,347.5 202.5,347.5C 202.5,334.167 202.5,320.833 202.5,307.5 Z"/></g>
<g><path style="opacity:1" fill="#221815" d="M 262.5,307.5 C 262.5,320.833 262.5,334.167 262.5,347.5C 259.167,347.5 255.833,347.5 252.5,347.5C 252.5,334.167 252.5,320.833 252.5,307.5C 255.833,307.5 259.167,307.5 262.5,307.5 Z"/></g>
<g><path style="opacity:1" fill="#221815" d="M 332.5,307.5 C 335.833,307.5 339.167,307.5 342.5,307.5C 342.5,330.833 342.5,354.167 342.5,377.5C 339.167,377.5 335.833,377.5 332.5,377.5C 332.5,354.167 332.5,330.833 332.5,307.5 Z"/></g>
<g><path style="opacity:1" fill="#221815" d="M 62.5,317.5 C 62.5,320.833 62.5,324.167 62.5,327.5C 62.5,330.833 62.5,334.167 62.5,337.5C 59.1667,337.5 55.8333,337.5 52.5,337.5C 52.5,330.833 52.5,324.167 52.5,317.5C 55.8333,317.5 59.1667,317.5 62.5,317.5 Z"/></g>
<g><path style="opacity:1" fill="#221815" d="M 92.5,317.5 C 92.5,320.833 92.5,324.167 92.5,327.5C 89.1667,327.5 85.8333,327.5 82.5,327.5C 82.5,324.167 82.5,320.833 82.5,317.5C 85.8333,317.5 89.1667,317.5 92.5,317.5 Z"/></g>
<g><path style="opacity:1" fill="#f09223" d="M 152.5,317.5 C 155.833,317.5 159.167,317.5 162.5,317.5C 162.5,324.167 162.5,330.833 162.5,337.5C 159.167,337.5 155.833,337.5 152.5,337.5C 152.5,330.833 152.5,324.167 152.5,317.5 Z"/></g>
<g><path style="opacity:1" fill="#221815" d="M 162.5,317.5 C 165.833,317.5 169.167,317.5 172.5,317.5C 172.5,324.167 172.5,330.833 172.5,337.5C 169.167,337.5 165.833,337.5 162.5,337.5C 162.5,330.833 162.5,324.167 162.5,317.5 Z"/></g>
<g><path style="opacity:1" fill="#221815" d="M 302.5,317.5 C 302.5,324.167 302.5,330.833 302.5,337.5C 299.167,337.5 295.833,337.5 292.5,337.5C 292.5,330.833 292.5,324.167 292.5,317.5C 295.833,317.5 299.167,317.5 302.5,317.5 Z"/></g>
<g><path style="opacity:1" fill="#f09223" d="M 302.5,317.5 C 305.833,317.5 309.167,317.5 312.5,317.5C 312.5,324.167 312.5,330.833 312.5,337.5C 309.167,337.5 305.833,337.5 302.5,337.5C 302.5,330.833 302.5,324.167 302.5,317.5 Z"/></g>
<g><path style="opacity:1" fill="#f09223" d="M 62.5,327.5 C 69.1667,327.5 75.8333,327.5 82.5,327.5C 85.8333,327.5 89.1667,327.5 92.5,327.5C 95.8333,327.5 99.1667,327.5 102.5,327.5C 102.5,330.833 102.5,334.167 102.5,337.5C 102.5,340.833 102.5,344.167 102.5,347.5C 105.833,347.5 109.167,347.5 112.5,347.5C 112.5,350.833 112.5,354.167 112.5,357.5C 109.167,357.5 105.833,357.5 102.5,357.5C 102.5,360.833 102.5,364.167 102.5,367.5C 105.833,367.5 109.167,367.5 112.5,367.5C 112.5,370.833 112.5,374.167 112.5,377.5C 115.833,377.5 119.167,377.5 122.5,377.5C 122.5,384.167 122.5,390.833 122.5,397.5C 119.167,397.5 115.833,397.5 112.5,397.5C 112.5,394.167 112.5,390.833 112.5,387.5C 105.833,387.5 99.1667,387.5 92.5,387.5C 92.5,384.167 92.5,380.833 92.5,377.5C 89.1667,377.5 85.8333,377.5 82.5,377.5C 82.5,374.167 82.5,370.833 82.5,367.5C 85.8333,367.5 89.1667,367.5 92.5,367.5C 92.5,364.167 92.5,360.833 92.5,357.5C 89.1667,357.5 85.8333,357.5 82.5,357.5C 82.5,354.167 82.5,350.833 82.5,347.5C 82.5,344.167 82.5,340.833 82.5,337.5C 79.1667,337.5 75.8333,337.5 72.5,337.5C 69.1667,337.5 65.8333,337.5 62.5,337.5C 62.5,334.167 62.5,330.833 62.5,327.5 Z"/></g>
<g><path style="opacity:1" fill="#221815" d="M 92.5,327.5 C 95.8333,327.5 99.1667,327.5 102.5,327.5C 102.5,330.833 102.5,334.167 102.5,337.5C 99.1667,337.5 95.8333,337.5 92.5,337.5C 92.5,334.167 92.5,330.833 92.5,327.5 Z"/></g>
<g><path style="opacity:1" fill="#221815" d="M 62.5,337.5 C 65.8333,337.5 69.1667,337.5 72.5,337.5C 72.5,340.833 72.5,344.167 72.5,347.5C 69.1667,347.5 65.8333,347.5 62.5,347.5C 62.5,344.167 62.5,340.833 62.5,337.5 Z"/></g>
<g><path style="opacity:1" fill="#fed923" d="M 72.5,337.5 C 75.8333,337.5 79.1667,337.5 82.5,337.5C 82.5,340.833 82.5,344.167 82.5,347.5C 79.1667,347.5 75.8333,347.5 72.5,347.5C 72.5,344.167 72.5,340.833 72.5,337.5 Z"/></g>
<g><path style="opacity:1" fill="#f09223" d="M 162.5,337.5 C 165.833,337.5 169.167,337.5 172.5,337.5C 172.5,340.833 172.5,344.167 172.5,347.5C 169.167,347.5 165.833,347.5 162.5,347.5C 162.5,344.167 162.5,340.833 162.5,337.5 Z"/></g>
<g><path style="opacity:1" fill="#221815" d="M 172.5,337.5 C 175.833,337.5 179.167,337.5 182.5,337.5C 182.5,340.833 182.5,344.167 182.5,347.5C 179.167,347.5 175.833,347.5 172.5,347.5C 172.5,344.167 172.5,340.833 172.5,337.5 Z"/></g>
<g><path style="opacity:1" fill="#221815" d="M 292.5,337.5 C 292.5,340.833 292.5,344.167 292.5,347.5C 289.167,347.5 285.833,347.5 282.5,347.5C 282.5,344.167 282.5,340.833 282.5,337.5C 285.833,337.5 289.167,337.5 292.5,337.5 Z"/></g>
<g><path style="opacity:1" fill="#f09223" d="M 292.5,337.5 C 295.833,337.5 299.167,337.5 302.5,337.5C 302.5,340.833 302.5,344.167 302.5,347.5C 299.167,347.5 295.833,347.5 292.5,347.5C 292.5,344.167 292.5,340.833 292.5,337.5 Z"/></g>
<g><path style="opacity:1" fill="#221815" d="M 72.5,347.5 C 75.8333,347.5 79.1667,347.5 82.5,347.5C 82.5,350.833 82.5,354.167 82.5,357.5C 79.1667,357.5 75.8333,357.5 72.5,357.5C 72.5,354.167 72.5,350.833 72.5,347.5 Z"/></g>
<g><path style="opacity:1" fill="#f09223" d="M 172.5,347.5 C 175.833,347.5 179.167,347.5 182.5,347.5C 182.5,350.833 182.5,354.167 182.5,357.5C 179.167,357.5 175.833,357.5 172.5,357.5C 172.5,354.167 172.5,350.833 172.5,347.5 Z"/></g>
<g><path style="opacity:1" fill="#221815" d="M 182.5,347.5 C 189.167,347.5 195.833,347.5 202.5,347.5C 202.5,350.833 202.5,354.167 202.5,357.5C 195.833,357.5 189.167,357.5 182.5,357.5C 182.5,354.167 182.5,350.833 182.5,347.5 Z"/></g>
<g><path style="opacity:1" fill="#221815" d="M 262.5,347.5 C 269.167,347.5 275.833,347.5 282.5,347.5C 282.5,350.833 282.5,354.167 282.5,357.5C 275.833,357.5 269.167,357.5 262.5,357.5C 262.5,354.167 262.5,350.833 262.5,347.5 Z"/></g>
<g><path style="opacity:1" fill="#f09223" d="M 282.5,347.5 C 285.833,347.5 289.167,347.5 292.5,347.5C 292.5,350.833 292.5,354.167 292.5,357.5C 289.167,357.5 285.833,357.5 282.5,357.5C 282.5,354.167 282.5,350.833 282.5,347.5 Z"/></g>
<g><path style="opacity:1" fill="#221815" d="M 82.5,357.5 C 85.8333,357.5 89.1667,357.5 92.5,357.5C 92.5,360.833 92.5,364.167 92.5,367.5C 89.1667,367.5 85.8333,367.5 82.5,367.5C 82.5,364.167 82.5,360.833 82.5,357.5 Z"/></g>
<g><path style="opacity:1" fill="#221815" d="M 82.5,367.5 C 82.5,370.833 82.5,374.167 82.5,377.5C 79.1667,377.5 75.8333,377.5 72.5,377.5C 72.5,374.167 72.5,370.833 72.5,367.5C 75.8333,367.5 79.1667,367.5 82.5,367.5 Z"/></g>
<g><path style="opacity:1" fill="#f09223" d="M 122.5,367.5 C 125.833,367.5 129.167,367.5 132.5,367.5C 132.5,370.833 132.5,374.167 132.5,377.5C 129.167,377.5 125.833,377.5 122.5,377.5C 122.5,374.167 122.5,370.833 122.5,367.5 Z"/></g>
<g><path style="opacity:1" fill="#221815" d="M 82.5,377.5 C 85.8333,377.5 89.1667,377.5 92.5,377.5C 92.5,380.833 92.5,384.167 92.5,387.5C 89.1667,387.5 85.8333,387.5 82.5,387.5C 82.5,384.167 82.5,380.833 82.5,377.5 Z"/></g>
<g><path style="opacity:1" fill="#221815" d="M 122.5,377.5 C 125.833,377.5 129.167,377.5 132.5,377.5C 132.5,384.167 132.5,390.833 132.5,397.5C 135.833,397.5 139.167,397.5 142.5,397.5C 142.5,400.833 142.5,404.167 142.5,407.5C 132.5,407.5 122.5,407.5 112.5,407.5C 112.5,404.167 112.5,400.833 112.5,397.5C 115.833,397.5 119.167,397.5 122.5,397.5C 122.5,390.833 122.5,384.167 122.5,377.5 Z"/></g>
<g><path style="opacity:1" fill="#f09223" d="M 132.5,377.5 C 135.833,377.5 139.167,377.5 142.5,377.5C 142.5,384.167 142.5,390.833 142.5,397.5C 139.167,397.5 135.833,397.5 132.5,397.5C 132.5,390.833 132.5,384.167 132.5,377.5 Z"/></g>
<g><path style="opacity:1" fill="#221815" d="M 332.5,377.5 C 332.5,384.167 332.5,390.833 332.5,397.5C 329.167,397.5 325.833,397.5 322.5,397.5C 322.5,390.833 322.5,384.167 322.5,377.5C 325.833,377.5 329.167,377.5 332.5,377.5 Z"/></g>
<g><path style="opacity:1" fill="#221815" d="M 92.5,387.5 C 99.1667,387.5 105.833,387.5 112.5,387.5C 112.5,390.833 112.5,394.167 112.5,397.5C 105.833,397.5 99.1667,397.5 92.5,397.5C 92.5,394.167 92.5,390.833 92.5,387.5 Z"/></g>
<g><path style="opacity:1" fill="#f09223" d="M 142.5,397.5 C 145.833,397.5 149.167,397.5 152.5,397.5C 152.5,400.833 152.5,404.167 152.5,407.5C 149.167,407.5 145.833,407.5 142.5,407.5C 142.5,404.167 142.5,400.833 142.5,397.5 Z"/></g>
<g><path style="opacity:1" fill="#f09223" d="M 252.5,407.5 C 239.167,407.5 225.833,407.5 212.5,407.5C 212.5,404.167 212.5,400.833 212.5,397.5C 225.833,397.5 239.167,397.5 252.5,397.5C 252.5,400.833 252.5,404.167 252.5,407.5 Z"/></g>
<g><path style="opacity:1" fill="#221815" d="M 322.5,397.5 C 322.5,400.833 322.5,404.167 322.5,407.5C 319.167,407.5 315.833,407.5 312.5,407.5C 312.5,404.167 312.5,400.833 312.5,397.5C 315.833,397.5 319.167,397.5 322.5,397.5 Z"/></g>
<g><path style="opacity:1" fill="#221815" d="M 142.5,407.5 C 145.833,407.5 149.167,407.5 152.5,407.5C 152.5,410.833 152.5,414.167 152.5,417.5C 149.167,417.5 145.833,417.5 142.5,417.5C 142.5,414.167 142.5,410.833 142.5,407.5 Z"/></g>
<g><path style="opacity:1" fill="#f09223" d="M 192.5,407.5 C 192.5,410.833 192.5,414.167 192.5,417.5C 185.833,417.5 179.167,417.5 172.5,417.5C 172.5,414.167 172.5,410.833 172.5,407.5C 179.167,407.5 185.833,407.5 192.5,407.5 Z"/></g>
<g><path style="opacity:1" fill="#221815" d="M 192.5,407.5 C 199.167,407.5 205.833,407.5 212.5,407.5C 225.833,407.5 239.167,407.5 252.5,407.5C 255.833,407.5 259.167,407.5 262.5,407.5C 262.5,410.833 262.5,414.167 262.5,417.5C 242.5,417.5 222.5,417.5 202.5,417.5C 202.5,420.833 202.5,424.167 202.5,427.5C 195.833,427.5 189.167,427.5 182.5,427.5C 182.5,430.833 182.5,434.167 182.5,437.5C 165.833,437.5 149.167,437.5 132.5,437.5C 132.5,430.833 132.5,424.167 132.5,417.5C 135.833,417.5 139.167,417.5 142.5,417.5C 142.5,420.833 142.5,424.167 142.5,427.5C 152.5,427.5 162.5,427.5 172.5,427.5C 172.5,424.167 172.5,420.833 172.5,417.5C 179.167,417.5 185.833,417.5 192.5,417.5C 192.5,414.167 192.5,410.833 192.5,407.5 Z"/></g>
<g><path style="opacity:1" fill="#f09223" d="M 262.5,407.5 C 269.167,407.5 275.833,407.5 282.5,407.5C 282.5,410.833 282.5,414.167 282.5,417.5C 275.833,417.5 269.167,417.5 262.5,417.5C 262.5,414.167 262.5,410.833 262.5,407.5 Z"/></g>
<g><path style="opacity:1" fill="#221815" d="M 312.5,407.5 C 312.5,410.833 312.5,414.167 312.5,417.5C 309.167,417.5 305.833,417.5 302.5,417.5C 302.5,414.167 302.5,410.833 302.5,407.5C 305.833,407.5 309.167,407.5 312.5,407.5 Z"/></g>
<g><path style="opacity:1" fill="#221815" d="M 262.5,417.5 C 269.167,417.5 275.833,417.5 282.5,417.5C 282.5,420.833 282.5,424.167 282.5,427.5C 292.5,427.5 302.5,427.5 312.5,427.5C 312.5,424.167 312.5,420.833 312.5,417.5C 315.833,417.5 319.167,417.5 322.5,417.5C 322.5,424.167 322.5,430.833 322.5,437.5C 305.833,437.5 289.167,437.5 272.5,437.5C 272.5,434.167 272.5,430.833 272.5,427.5C 269.167,427.5 265.833,427.5 262.5,427.5C 262.5,424.167 262.5,420.833 262.5,417.5 Z"/></g>
</svg>
