<svg xmlns="http://www.w3.org/2000/svg" xmlns:xlink="http://www.w3.org/1999/xlink" viewBox="0,0,256,256" width="64px" height="64px">
<defs><linearGradient x1="44.083" y1="28" x2="44.083" y2="44.851" gradientUnits="userSpaceOnUse" id="color-1"><stop offset="0" stop-color="#6dc7ff"></stop><stop offset="1" stop-color="#e6abff"></stop></linearGradient><linearGradient x1="32" y1="9" x2="32" y2="56" gradientUnits="userSpaceOnUse" id="color-2"><stop offset="0" stop-color="#1a6dff"></stop><stop offset="1" stop-color="#c822ff"></stop></linearGradient><linearGradient x1="36.08" y1="47" x2="36.08" y2="53.04" gradientUnits="userSpaceOnUse" id="color-3"><stop offset="0" stop-color="#6dc7ff"></stop><stop offset="1" stop-color="#e6abff"></stop></linearGradient><linearGradient x1="22" y1="21" x2="22" y2="36" gradientUnits="userSpaceOnUse" id="color-4"><stop offset="0" stop-color="#6dc7ff"></stop><stop offset="1" stop-color="#e6abff"></stop></linearGradient></defs><g fill-opacity="0" fill="#dddddd" fill-rule="nonzero" stroke="none" stroke-width="1" stroke-linecap="butt" stroke-linejoin="miter" stroke-miterlimit="10" stroke-dasharray="" stroke-dashoffset="0" font-family="none" font-weight="none" font-size="none" text-anchor="none" style="mix-blend-mode: normal"><path d="M0,256v-256h256v256z" id="bgRectangle"></path></g><g fill="none" fill-rule="nonzero" stroke="none" stroke-width="1" stroke-linecap="butt" stroke-linejoin="miter" stroke-miterlimit="10" stroke-dasharray="" stroke-dashoffset="0" font-family="none" font-weight="none" font-size="none" text-anchor="none" style="mix-blend-mode: normal"><g transform="scale(4,4)"><path d="M51,33v-2h-8v-3h-2v3h-3.833l0.833,2h8.612c-0.615,1.091 -1.635,2.704 -3.112,4.427c-0.899,-1.002 -1.81,-2.122 -2.678,-3.372l-1.643,1.141c0.961,1.385 1.968,2.617 2.956,3.709c-0.529,0.532 -1.099,1.062 -1.715,1.58l1.285,1.531c0.649,-0.545 1.251,-1.102 1.809,-1.66c2.885,2.877 5.311,4.402 5.46,4.495l1.053,-1.701c-0.034,-0.021 -2.373,-1.49 -5.146,-4.262c2.183,-2.505 3.471,-4.824 4.003,-5.888z" fill="url(#color-1)"></path><path d="M53,18h-19.87l-3.2,-8.36c-0.14,-0.38 -0.52,-0.64 -0.93,-0.64h-18c-1.65,0 -3,1.35 -3,3v32c0,1.65 1.35,3 3,3h19.28l2.77,8.32c0.11,0.34 0.4,0.59 0.75,0.66c0.07,0.01 0.13,0.02 0.2,0.02h19c1.65,0 3,-1.35 3,-3v-32c0,-1.65 -1.35,-3 -3,-3zM11,45c-0.55,0 -1,-0.45 -1,-1v-32c0,-0.55 0.45,-1 1,-1h17.31l12.24,34zM32.39,47h7.38l-5.37,6.04zM54,53c0,0.55 -0.45,1 -1,1h-16.77l6.52,-7.34h-0.01c0.03,-0.03 0.06,-0.06 0.08,-0.09c0.19,-0.27 0.23,-0.62 0.11,-0.93l-9.04,-25.64h19.11c0.55,0 1,0.45 1,1z" fill="url(#color-2)"></path><path d="M39.77,47l-5.37,6.04l-2.01,-6.04z" fill="url(#color-3)"></path><g fill="url(#color-4)"><path d="M24.172,32h-4.36l-1.008,4h-2.804l4.764,-15h2.444l4.792,15h-2.805zM20.444,30h3.101l-1.559,-5.714z"></path></g></g></g></svg>